<?xml version="1.0" standalone="no"?>
<!DOCTYPE svg PUBLIC "-//W3C//DTD SVG 20010904//EN"
 "http://www.w3.org/TR/2001/REC-SVG-20010904/DTD/svg10.dtd">
<svg version="1.0" xmlns="http://www.w3.org/2000/svg"
 width="16.000000pt" height="16.000000pt" viewBox="0 0 16.000000 16.000000"
 preserveAspectRatio="xMidYMid meet">
<metadata>
Created by potrace 1.11, written by Peter Selinger 2001-2013
</metadata>
<g transform="translate(0.000000,16.000000) scale(0.006154,-0.006154)"
fill="#000000" stroke="none">
<path d="M0 1300 l0 -1300 1300 0 1300 0 0 1300 0 1300 -1300 0 -1300 0 0
-1300z m2330 792 c47 -23 61 -63 34 -99 -31 -41 -64 -48 -118 -24 -25 12 -57
21 -71 21 -135 0 -392 -359 -510 -712 -92 -276 -117 -612 -59 -779 51 -149
199 -232 387 -216 123 11 203 65 291 198 57 87 109 109 137 56 21 -38 -6 -94
-85 -171 -148 -146 -344 -206 -534 -161 -161 38 -268 136 -321 293 -74 219
-33 598 95 882 19 41 27 66 18 55 -34 -45 -160 -263 -242 -421 -70 -136 -93
-172 -120 -187 -80 -46 -108 24 -99 244 3 78 14 175 26 233 12 55 20 101 18
102 -2 2 -51 -81 -110 -184 -144 -252 -208 -327 -339 -393 -219 -110 -482 -55
-554 116 -37 88 -12 230 57 323 75 102 275 182 315 127 18 -25 18 -45 -2 -73
-15 -22 -21 -23 -79 -17 -60 7 -63 6 -99 -26 -122 -106 -119 -331 5 -395 81
-41 202 -35 307 17 95 46 172 124 245 248 78 131 117 198 117 204 0 2 -26 -5
-57 -16 -77 -26 -209 -21 -269 10 -61 32 -111 93 -130 160 -57 193 122 455
372 545 78 28 200 30 266 5 55 -21 120 -87 139 -143 18 -51 16 -216 -4 -314
-9 -41 -32 -146 -52 -232 -29 -129 -58 -315 -50 -325 1 -2 28 45 60 105 344
637 793 1055 1015 944z"/>
<path d="M979 1971 c-170 -54 -320 -232 -320 -380 -1 -81 23 -127 85 -166 41
-25 57 -29 115 -28 74 1 121 15 121 37 0 29 80 50 95 26 3 -5 10 -10 14 -10 4
0 38 59 75 131 75 144 90 209 66 292 -29 107 -116 141 -251 98z"/>
</g>
</svg>
